<svg xmlns="http://www.w3.org/2000/svg" viewBox="0 0 796.55 280.62"><defs><style>.cls-1{fill:#fff;}</style></defs><title>Asset 1</title><g id="Layer_2" data-name="Layer 2"><g id="Layer_1-2" data-name="Layer 1"><path class="cls-1" d="M163.45,115.41a8.2,8.2,0,0,0-6-1.8,7.45,7.45,0,0,0-5.4,3q-4.5,5.7-9.6,6.6-4.2.9-10.5-1.5-1.8-.6-3.9-1.5.6-6,1.2-15.6.9-17.4,2.1-25.2,3.3-25.2,14.4-53.1a92.53,92.53,0,0,0,10.8-.6c2.4-.4,5-.9,7.9-1.6s5.3-1.4,7.4-2,4.4-1.4,7.2-2.4l6.3-2.1a8.32,8.32,0,0,0,4.8-4.2,7.66,7.66,0,0,0,.4-6.1,8.42,8.42,0,0,0-4-4.7,7.91,7.91,0,0,0-6-.6l-6.9,2.4q-4.2,1.5-6.6,2.4l-6,1.5a38.59,38.59,0,0,1-6.3,1.2,124.31,124.31,0,0,1-12.9.6h-3q-6.6,0-20.4-.9-32.1-2.1-41.4-2.1c-16.4-.2-31,1.9-43.8,6.2a64.15,64.15,0,0,0-31.8,23.5,9,9,0,0,0-1.4,6,7.87,7.87,0,0,0,3.1,5.3,8,8,0,0,0,6,1.5,8.32,8.32,0,0,0,5.4-3.1,49.45,49.45,0,0,1,24.9-18.3q15.3-5.1,37.2-4.8,9,0,40.8,2.1,6.3.6,10.8.6a240.12,240.12,0,0,0-13.2,51q-.9,7.5-2.1,26.7-.3,5.4-.6,7.8-5.7-3-9.6-4.8-18.9-7.8-45,.6a8.39,8.39,0,0,0-4.5,4.2,7.25,7.25,0,0,0-.4,6.1,7.78,7.78,0,0,0,4,4.7,8.58,8.58,0,0,0,6.3.6q20.1-6.9,33-1.2A120.93,120.93,0,0,1,110,129l.6.3q-4.2,25.5-19.2,40.8a55.93,55.93,0,0,1-17.1,11.3,63.3,63.3,0,0,1-21.3,5.5q-22.8,1.8-30-15.3a7.36,7.36,0,0,0-4.67-4.3,8.72,8.72,0,0,0-4.8-.28,7.64,7.64,0,0,0-5.63,4.68,9.1,9.1,0,0,0,0,6.5c4,9.4,10.2,16,18.6,20s17.7,5.5,27.9,5a86.25,86.25,0,0,0,26.4-7,69.9,69.9,0,0,0,21.9-14.6q17.4-17.4,22.8-44.7l.9.3q10.5,3.9,19.2,2.1,10.8-2.1,18.9-12.3a8.25,8.25,0,0,0,1.8-6A6.74,6.74,0,0,0,163.45,115.41Z"/><path class="cls-1" d="M795.42,129a7.87,7.87,0,0,0-5.11-3.6,7.62,7.62,0,0,0-6.11,1,7.45,7.45,0,0,0-3.51,5.11c-3.4,13.82-7,25.14-10.71,33.86a79.84,79.84,0,0,1-16,23.94c.2-7.41.2-17,.2-28.85s-.1-20.14.1-24.95q0-1.8.9-13.82c.2-3.61.4-6.31.6-8.12V107.4c-.2-.4-.4-.9-.8-1.6s-.7-1.4-1-2a7.75,7.75,0,0,0-6.9-3,7.6,7.6,0,0,0-5.09,2.1,8.42,8.42,0,0,0-2.1,3.3q-.3.9-.9,2.4-.3,1.8-1.8,7.2-3.3,12.89-5.1,18.59-7.5,23.38-12.89,34.78a88.08,88.08,0,0,1-9.3,16.79q-4.5,5.7-8.1,6.6c-1.8.4-3.09.3-3.89-.3a7.78,7.78,0,0,1-2.7-3.9q-3-8.1-1.8-25.49c.2-3.39.7-7.39,1.3-11.79.9-4.5,1.7-9.2,2.2-14.09,1.4-7.7,3.09-16.3,5.19-26a7.57,7.57,0,0,0-.9-6.2,7.82,7.82,0,0,0-5.12-3.6,8.28,8.28,0,0,0-6.48,1.21,7.34,7.34,0,0,0-3.19,4.89c-1.7,7.4-3.1,14.29-4.4,20.59a6.89,6.89,0,0,0-1.3,3.7q-2.7,26.08-11.09,42.28-5.1,9.9-11.1,13.79-6.59,3.9-15,1.5-6-1.8-11.39-10.49-4.2-7.8-5.4-22.19a5.46,5.46,0,0,0,2.4-1.8Q670.8,107.6,685.48,45.23a59.58,59.58,0,0,0,1.8-24.89q-1.2-9-5.7-14.09-6.58-7.5-17.39-6-8.1,1.5-15.89,10.49a88.15,88.15,0,0,0-10.2,16.8,226.59,226.59,0,0,0-12.29,31.18,319,319,0,0,0-14.09,62.37c-.4,3-.7,5.9-1,8.7q-6.15,30.59-16.4,47.68-9.89,16.49-18.89,13.19c-2.6-1-5.09-3.5-7.29-7.4s-3.9-9.09-4.7-15.79c-1.1-9.29-1.1-20.59.2-33.78l.4-1a8.73,8.73,0,0,0,.3-5.5c1.3-10.89,3.3-23.09,6-36.48a160.81,160.81,0,0,0,27.88-3.9,7.28,7.28,0,0,0,5.1-3.4,8.27,8.27,0,0,0-2.6-11.29,7.51,7.51,0,0,0-6.2-.9,139.31,139.31,0,0,1-20.69,3q5.1-22.8,12.6-47.38a8.17,8.17,0,0,0-.8-6.3,7.8,7.8,0,0,0-10.9-3.1,7.88,7.88,0,0,0-3.89,4.6q-8.1,27.59-13.8,52.18a176.15,176.15,0,0,1-20.69-3.3,7.23,7.23,0,0,0-6.1.9,7.84,7.84,0,0,0-3.59,5.09,8.06,8.06,0,0,0,1,6.1,7.37,7.37,0,0,0,5.09,3.5,144.58,144.58,0,0,0,21,3.6,385.27,385.27,0,0,0-6.29,39.58L543,140.48l-1.2,2.1a3.09,3.09,0,0,1-.2.8,2.18,2.18,0,0,1-.5.8l-.3,2.4v.64l-1.8,5.11a147.7,147.7,0,0,1-12.63,25.25c-3.21,5-5.52,8.22-6.92,9.63q-3,2.4-9,3c-2.61.2-4.61-.1-5.91-1a8.63,8.63,0,0,1-3.11-5q-3-7.81-2.71-26.16c0-1.6.2-6.51.5-14.73s.51-14.14.51-17.74a67.19,67.19,0,0,0-1.81-14.44q-2.1-8.41-7.52-12.32-10.51-7.83-23.45,3.3-6.61,5.72-14.13,17.74c0-2,.1-4.11.3-6.31a7.43,7.43,0,0,0-2-5.81,8.21,8.21,0,0,0-5.52-2.81,7.58,7.58,0,0,0-5.91,1.9,7.87,7.87,0,0,0-2.81,5.62q-.6,9.47-1.5,18.94-1.95,5.42-4.51,12.93c-1.8,5.41-3.51,10.22-5.11,14.33a108.34,108.34,0,0,1-5.41,11.83Q411.85,186.4,396.82,190q-18.35,4.22-25.86-6.91-3.6-5.41-4.51-14.14a32.89,32.89,0,0,0,20.15-.3q14.73-4.8,24.65-20.14,9.63-14.73,8.72-29.17-.9-18.64-18-24.65a25.41,25.41,0,0,0-19.24,1A44.5,44.5,0,0,0,366.75,109a76.6,76.6,0,0,0-10,17.74c0,.1-.1.2-.1.3A95.63,95.63,0,0,0,351,148.22c-.1.4-.3.8-.4,1.2a137.18,137.18,0,0,1-10,23.05Q334,183.9,328,186.91q-5.12,2.7-10.83-2.71-2.4-2.4-3-11.43-.9-8.42.61-22.85.9-9.31,3.6-24Q320.46,112,320.75,109V106.1l-.9-3.29A8.32,8.32,0,0,0,313,98.62a8.89,8.89,0,0,0-8.08,5.39,4.13,4.13,0,0,0-.3,1.79,58.32,58.32,0,0,0-1.5,7.49q-3.29,18-3.29,18.86-4.5,20.67-10.18,33.54-8.39,18.57-18.57,20.06-5.69.9-8.38-5.09-3.6-7.78-3.59-24.25a212.12,212.12,0,0,1,6.58-50.31,7.66,7.66,0,0,0-.79-6.09,8.07,8.07,0,0,0-5-3.79,7.54,7.54,0,0,0-6.08.8,8.39,8.39,0,0,0-3.8,5,210.51,210.51,0,0,0-4.69,23.26,13,13,0,0,0-1.59,1,7.45,7.45,0,0,0-3,5.39q-2.7,26.06-11.08,42.22-5.09,9.88-11.08,13.78-6.58,3.89-15,1.49-6-1.78-11.38-10.48-4.19-7.78-5.39-22.15a5.46,5.46,0,0,0,2.4-1.8q41.63-47,56.29-109.29a59.4,59.4,0,0,0,1.8-24.85q-1.2-9-5.69-14.08Q235-1,224.23.5,216.15,2,208.36,11a89,89,0,0,0-10.18,16.77,225.8,225.8,0,0,0-12.27,31.14,319.57,319.57,0,0,0-14.08,62.28q-6,44.62,6.29,65.28,8.38,14.67,20.66,18.27,15.87,4.49,28.75-3.6,10.17-6.28,17.06-20.06c.2-.4.4-.9.6-1.3a43,43,0,0,0,2.7,7.89Q255.68,205,273.34,202q15-2.7,25.75-19.46,2.1,8.69,7.19,13.47Q320,208.92,335,201.42c6.39-3.29,12.38-9.38,17.87-18.36a38.77,38.77,0,0,0,4.59,8.78Q370.95,212.2,400,205.31A48.24,48.24,0,0,0,426,190a14.05,14.05,0,0,0-.2,1.8V195a3.41,3.41,0,0,0,.3,1.51,7.23,7.23,0,0,0,4.21,5.1q5.1,2.41,9.31-1.8a11.45,11.45,0,0,0,1.51-1.8,5.37,5.37,0,0,0,.6-2.41,4.18,4.18,0,0,0,.3-1.8q2.4-12,4.51-24.64a27.32,27.32,0,0,1,1.2-4.51,144.16,144.16,0,0,1,6-14.43q5.12-10.22,10.82-19.84,6.92-11.41,12.62-15.92a18.36,18.36,0,0,1,3.31-2.41,11.58,11.58,0,0,1,1.2,3.31,56.47,56.47,0,0,1,1.2,10.52q0,5.7-.3,17.43t-.6,14.42q-.3,21.65,3.61,32.16,3,8.42,9,12.63,6.92,4.8,16.53,3.9,11.43-1.2,18.34-6.91,4.2-3.6,10.22-12.92A154.86,154.86,0,0,0,547.07,173a56.94,56.94,0,0,0,6.71,19.64q6,9.92,15.33,13.52c7,2.61,13.82,2,20.64-1.7s12.62-9.82,17.83-18.43c1.8-3.11,3.61-6.42,5.31-10a51.23,51.23,0,0,0,4.61,10.62q8.41,14.72,20.74,18.33,15.91,4.52,28.85-3.61a40.76,40.76,0,0,0,11.52-10.92,33.2,33.2,0,0,0,1.1,3.41q3,8.41,9,12.32,6.91,4.22,16.23,2.11,9-1.81,17.13-12.33a98.31,98.31,0,0,0,11.72-19.83l3.91-9.32q0,18-.3,29.45c-.21,2.21-.31,4.31-.31,6.32l-3,2.1q-12.33,8.12-17.13,11.72-21.65,16.83-24.05,37a25.12,25.12,0,0,0,3.81,17.13,20.58,20.58,0,0,0,13.63,9.62,22.19,22.19,0,0,0,17.73-3.51c5.61-3.71,10.32-9.62,14.12-17.53q8.12-17.13,10.52-47.49,3.62-2.7,6.62-5.41,15.92-13.81,23.44-30.05T796,135.19A6.55,6.55,0,0,0,795.42,129Zm-422.67,2.63a57,57,0,0,1,7.3-12.5q8.7-11.7,16.8-8.7,6.9,2.1,7.2,9.9.6,9-6,19.2-6.9,10.5-16.2,13.8a17.23,17.23,0,0,1-14.3-1.6A150.29,150.29,0,0,0,372.75,131.61Zm-189.2-.2q.3-3.9.9-7.8a327,327,0,0,1,11.7-55.5,192,192,0,0,1,9.9-27,58.5,58.5,0,0,1,7.2-12.6q3-3.9,4.5-4.2a1.79,1.79,0,0,1,1.8.3q1.2,1.5,1.5,5.4a49.08,49.08,0,0,1-.9,17.7Q209.35,95.11,183.55,131.41Zm440.7-10.1a318,318,0,0,1,11.4-53.2,192,192,0,0,1,9.9-27,58.5,58.5,0,0,1,7.2-12.6q3-3.9,4.5-4.2a1.79,1.79,0,0,1,1.8.3q1.2,1.5,1.5,5.4a49.08,49.08,0,0,1-.9,17.7q-9.9,43.5-32.4,77.5a6.92,6.92,0,0,0-1-1.9A12.61,12.61,0,0,0,624.25,121.31Zm103.8,130.4a30.4,30.4,0,0,1-5.8,9c-2.1,2-3.8,3.2-5,3.5a8.07,8.07,0,0,1-3,.2,7.1,7.1,0,0,1-3.8-3,8.08,8.08,0,0,1-1-6.3q1.5-13.22,17.7-25.81l8.4-6C733.75,235.21,731.25,244.71,728.05,251.71Z"/></g></g></svg>